# Object Export From Tinkercad Server 2015

mtllib obj.mtl

o obj_0
v -67 		-32 		3
v -67 		-32 		0
v -55 		13.999 		0
v -55 		13.999 		3
v -67 		13.999 		0
v -67 		13.999 		3
v -61.542 		8.188 		3
v -63.458 		8.188 		0
v -61.542 		8.188 		0
v -62.988 		8.046 		0
v -62.012 		8.046 		0
v -62.012 		8.046 		3
v -47.7268 		7.1206 		3
v -62.5 		7.998 		0
v -49.152 		6.7649 		3
v -15.081 		-6.836 		3
v -15.564 		-8.23 		3
v 38.954 		10.012 		3
v 38.812 		9.542 		3
v -64.27 		12.27 		3
v -64.27 		12.27 		0
v 39.003 		10.5 		3
v -64.581 		11.89 		0
v -64.581 		11.89 		3
v -64.812 		11.458 		0
v -64.812 		11.458 		3
v -42.78 		-0.221 		12
v -49.152 		6.7649 		0
v -49.152 		0.6706 		3
v -49.3002 		0 		3
v -64.954 		10.988 		3
v -64.954 		10.988 		0
v -49.349 		-0.221 		12
v -55 		-0.325 		12
v -65.003 		10.5 		3
v -65.003 		10.5 		0
v -54.833 		1.213 		3
v -54.327 		2.623 		3
v -64.954 		10.012 		3
v -64.954 		10.012 		0
v -54.327 		2.623 		12
v -54.833 		1.213 		12
v -64.812 		9.542 		3
v -64.812 		9.542 		0
v -49.344 		6.717 		3
v -64.581 		9.11 		3
v -64.581 		9.11 		0
v -49.344 		6.717 		12
v -36.794 		-0.325 		12
v -64.27 		8.73 		3
v -64.27 		8.73 		0
v -50.885 		6.025 		3
v -63.89 		8.419 		3
v -63.89 		8.419 		0
v -50.885 		6.025 		12
v -32.937 		-24.871 		12
v -54.9647 		0 		3
v -40.911 		-24.026 		12
v -39.485 		-23.059 		12
v -38.308 		-21.898 		12
v -37.467 		-20.611 		12
v -36.963 		-19.198 		12
v -36.794 		-17.659 		12
v -53.486 		3.904 		3
v -46.074 		-20.341 		12
v -47.336 		-20.136 		12
v -53.486 		3.904 		12
v -48.411 		-19.522 		12
v -61.542 		12.812 		3
v -61.542 		12.812 		0
v -43.028 		-18.629 		12
v -43.769 		-19.522 		12
v -15.081 		-6.836 		12
v -15.564 		-8.23 		12
v -62.012 		12.954 		3
v -44.842 		-20.136 		12
v -62.012 		12.954 		0
v -14.918 		-0.674 		3
v -14.918 		-5.324 		3
v -62.5 		13.003 		3
v -62.5 		13.003 		0
v -62.988 		12.954 		3
v -14.918 		-0.674 		12
v -62.988 		12.954 		0
v -14.918 		-5.324 		12
v -14.9765 		0 		3
v -49.115 		-18.647 		12
v -63.458 		12.812 		3
v -63.458 		12.812 		0
v -45.908 		-25.271 		12
v -63.89 		12.581 		3
v -63.89 		12.581 		0
v -47.734 		-25.131 		12
v -42.78 		-17.589 		12
v -60.046 		10.988 		3
v -60.046 		10.988 		0
v -59.998 		10.5 		0
v -59.998 		10.5 		3
v -44.121 		-25.132 		12
v -42.456 		-24.718 		12
v -60.188 		11.458 		3
v -60.188 		11.458 		0
v -17.213 		4.675 		3
v -16.384 		3.7583 		3
v -60.419 		11.89 		3
v -60.419 		11.89 		0
v -49.349 		-17.589 		12
v -17.213 		4.675 		12
v -60.73 		12.27 		3
v -60.73 		12.27 		0
v -18.576 		5.643 		3
v -61.11 		12.581 		3
v -61.11 		12.581 		0
v -18.576 		5.643 		12
v -54.337 		-20.533 		12
v -53.51 		-21.826 		12
v -52.352 		-23.024 		12
v -50.956 		-24.008 		12
v -49.417 		-24.71 		12
v -20.143 		6.333 		3
v -55 		-17.659 		12
v -54.834 		-19.144 		12
v -61.11 		8.419 		3
v -61.11 		8.419 		0
v -20.143 		6.333 		12
v -21.913 		6.749 		3
v 15.675 		6.921 		3
v 23.286 		6.921 		3
v 29 		6.921 		3
v -60.73 		8.73 		3
v -60.73 		8.73 		0
v 23.286 		6.921 		12
v 29 		6.921 		12
v -21.913 		6.749 		12
v -60.419 		9.11 		3
v -60.419 		9.11 		0
v -23.886 		6.887 		3
v -60.188 		9.542 		3
v -60.188 		9.542 		0
v -23.886 		6.887 		12
v -60.046 		10.012 		3
v -60.046 		10.012 		0
v -23.74 		1.992 		3
v -27.202 		1.992 		3
v 15.675 		6.921 		12
v -20.6198 		0 		3
v -20.689 		0.358 		3
v -21.362 		1.243 		3
v -22.405 		1.804 		3
v -23.74 		1.992 		12
v -27.202 		1.992 		12
v -55 		-0.325 		3
v -55 		-17.659 		3
v 41 		-32 		3
v 41 		-32 		0
v -20.689 		0.358 		12
v -21.362 		1.243 		12
v -22.405 		1.804 		12
v -45.908 		-25.271 		0
v 5.331 		6.921 		3
v 9.231 		6.921 		3
v 5.331 		6.921 		12
v 9.231 		6.921 		12
v -45.908 		-25.271 		3
v 5.331 		2.096 		3
v 35.542 		8.188 		0
v 36.012 		8.046 		0
v -18.88 		-11.656 		3
v -20.402 		-12.358 		3
v -27.202 		-24.871 		3
v 22.869 		-24.871 		0
v 14.966 		-4.541 		0
v -27.202 		-24.871 		12
v 5.331 		2.096 		12
v 36.5 		7.998 		0
v 36.988 		8.046 		0
v 37.458 		8.188 		0
v 23.286 		-14.418 		3
v -18.88 		-11.656 		12
v -20.402 		-12.358 		12
v 23.286 		-14.418 		12
v -16.384 		-9.5213 		3
v 36.5 		13.003 		0
v -17.505 		-10.673 		3
v 29 		-24.871 		3
v 36.012 		12.954 		0
v -17.505 		-10.673 		12
v 29 		-24.871 		12
v 35.542 		12.812 		0
v -18.4279 		-11.3328 		3
v 35.11 		12.581 		0
v 22.869 		-24.871 		3
v 14.966 		-24.871 		3
v 9.231 		-24.871 		3
v 34.73 		12.27 		0
v 5.331 		-24.871 		3
v 34.419 		11.89 		0
v 22.869 		-24.871 		12
v -22.071 		-12.779 		3
v 34.188 		11.458 		0
v 5.331 		-24.871 		12
v 34.046 		10.988 		0
v 14.966 		-24.871 		12
v 9.231 		-24.871 		12
v -22.071 		-12.779 		12
v 33.998 		10.5 		0
v -23.886 		-12.921 		3
v 34.046 		10.012 		0
v 14.966 		-4.541 		3
v -23.886 		-12.921 		12
v 14.966 		-4.541 		12
v 34.188 		9.542 		0
v -27.202 		-12.921 		3
v 34.419 		9.11 		0
v 5.331 		-20.097 		3
v -27.202 		-12.921 		12
v 34.73 		8.73 		0
v 35.11 		8.419 		0
v 5.331 		-20.097 		12
v 2.495 		-6.562 		3
v 2.495 		-11.387 		3
v -27.202 		-8.181 		3
v -23.74 		-8.181 		3
v 39.003 		10.5 		0
v -22.468 		-7.973 		3
v 38.954 		10.988 		0
v -21.403 		-7.345 		3
v -20.7 		-6.475 		3
v -20.466 		-5.43 		3
v -20.466 		-0.795 		3
v 38.812 		11.458 		0
v -27.202 		-8.181 		12
v 38.581 		11.89 		0
v -23.74 		-8.181 		12
v 2.495 		-6.562 		12
v 2.495 		-11.387 		12
v 38.27 		12.27 		0
v -20.466 		-5.43 		12
v -20.466 		-0.795 		12
v 37.89 		12.581 		0
v 37.458 		12.812 		0
v -20.7 		-6.475 		12
v 36.988 		12.954 		0
v -21.403 		-7.345 		12
v -52.309 		5.058 		3
v -52.309 		5.058 		12
v 37.89 		8.419 		0
v 38.27 		8.73 		0
v -5.263 		2.096 		3
v 38.581 		9.11 		0
v -5.263 		2.096 		12
v -49.349 		-0.221 		3
v 38.812 		9.542 		0
v -42.78 		-0.221 		3
v -42.8324 		0 		3
v 38.954 		10.012 		0
v -10.998 		6.921 		3
v 41 		13.999 		0
v -10.998 		6.921 		12
v -16.201 		3.556 		3
v -36.794 		-0.325 		3
v 29 		-24.871 		0
v 29 		6.921 		0
v -16.201 		3.556 		12
v -15.482 		2.292 		3
v -15.482 		2.292 		12
v -15.053 		0.882 		3
v -36.8309 		0 		3
v -15.053 		0.882 		12
v -32.937 		-24.871 		3
v -45.908 		7.269 		0
v -5.263 		-6.562 		3
v 23.286 		6.921 		0
v 15.675 		6.921 		0
v -5.263 		-6.562 		12
v -36.794 		-17.659 		3
v -36.963 		-19.198 		3
v 36.5 		13.003 		3
v -22.468 		-7.973 		12
v 9.231 		6.921 		0
v 23.286 		-14.418 		0
v 5.331 		6.921 		0
v 9.231 		-24.871 		0
v 5.331 		-24.871 		0
v 5.331 		2.096 		0
v 5.331 		-20.097 		0
v 2.495 		-11.387 		0
v 2.495 		-6.562 		0
v -5.263 		-11.387 		3
v -5.263 		-20.097 		3
v 14.966 		-24.871 		0
v -5.263 		-11.387 		12
v -5.263 		-20.097 		12
v -16.372 		-9.509 		3
v -5.263 		2.096 		0
v -10.998 		6.921 		0
v -10.998 		-24.871 		3
v -10.998 		-24.871 		12
v -16.201 		3.556 		0
v -16.384 		3.7583 		0
v -15.482 		2.292 		0
v -32.937 		6.887 		3
v -14.9765 		0 		0
v -15.053 		0.882 		0
v -16.372 		-9.509 		12
v -32.937 		6.887 		12
v -37.467 		2.553 		3
v -36.963 		1.162 		3
v -5.263 		-6.562 		0
v -36.963 		1.162 		12
v -37.467 		2.553 		12
v -38.308 		3.853 		3
v -47.7268 		7.1206 		0
v -49.115 		0.838 		0
v -49.152 		0.6706 		0
v -38.308 		3.853 		12
v -49.3002 		0 		0
v -5.263 		-20.097 		0
v -5.263 		-11.387 		0
v -40.96 		6.0647 		3
v -40.872 		6.025 		3
v -54.327 		2.623 		0
v -54.833 		1.213 		0
v -40.872 		6.025 		12
v -49.344 		6.717 		0
v -50.885 		6.025 		0
v -16.384 		-9.5213 		0
v -16.372 		-9.509 		0
v -39.485 		5.058 		3
v -54.9647 		0 		0
v -39.485 		5.058 		12
v -53.486 		3.904 		0
v -10.998 		-24.871 		0
v -52.309 		5.058 		0
v -43.024 		0.809 		3
v -43.759 		1.704 		3
v -44.828 		2.325 		3
v -46.074 		2.532 		3
v -47.347 		2.328 		3
v -48.411 		1.712 		3
v -15.564 		-8.23 		0
v -49.115 		0.838 		3
v -43.759 		1.704 		12
v -44.828 		2.325 		12
v -15.081 		-6.836 		0
v -49.349 		-0.221 		0
v -43.024 		0.809 		12
v -42.8324 		0 		0
v -42.78 		-0.221 		0
v -14.918 		-5.324 		0
v -14.918 		-0.674 		0
v -46.074 		2.532 		12
v -47.347 		2.328 		12
v -48.411 		1.712 		12
v -55 		-0.325 		0
v -42.404 		6.717 		3
v -36.794 		-0.325 		0
v -42.404 		6.717 		12
v -17.213 		4.675 		0
v -44.0523 		7.1232 		3
v -18.576 		5.643 		0
v -20.143 		6.333 		0
v -36.8309 		0 		0
v -49.115 		0.838 		12
v -21.913 		6.749 		0
v -47.685 		7.131 		3
v -23.886 		6.887 		0
v -22.405 		1.804 		0
v -21.362 		1.243 		0
v -20.689 		0.358 		0
v -20.6198 		0 		0
v -27.202 		1.992 		0
v -23.74 		1.992 		0
v -47.685 		7.131 		12
v -44.084 		7.131 		3
v -44.084 		7.131 		12
v -45.908 		7.269 		3
v -39.485 		-23.059 		3
v -40.911 		-24.026 		3
v -45.908 		7.269 		12
v -40.96 		-24.0479 		3
v -37.467 		-20.611 		3
v -27.202 		-24.871 		0
v -20.402 		-12.358 		0
v -18.88 		-11.656 		0
v -38.308 		-21.898 		3
v -17.505 		-10.673 		0
v -18.4279 		-11.3328 		0
v -22.071 		-12.779 		0
v -23.886 		-12.921 		0
v -47.68 		-25.1351 		3
v -47.734 		-25.131 		3
v -27.202 		-12.921 		0
v -20.466 		-0.795 		0
v -20.466 		-5.43 		0
v -20.7 		-6.475 		0
v -21.403 		-7.345 		0
v -22.468 		-7.973 		0
v -23.74 		-8.181 		0
v -49.152 		-24.7763 		3
v -27.202 		-8.181 		0
v -49.152 		-18.4797 		3
v -49.115 		-18.647 		3
v -48.411 		-19.522 		3
v -47.336 		-20.136 		3
v -46.074 		-20.341 		3
v -44.842 		-20.136 		3
v -43.769 		-19.522 		3
v -43.028 		-18.629 		3
v -42.78 		-17.589 		3
v -55 		-17.659 		0
v -63.458 		8.188 		3
v -62.988 		8.046 		3
v -32.937 		6.887 		0
v -62.5 		7.998 		3
v -36.963 		1.162 		0
v -37.467 		2.553 		0
v -38.308 		3.853 		0
v -40.872 		6.025 		0
v -40.96 		6.0647 		0
v -42.456 		-24.718 		3
v -44.121 		-25.132 		3
v -39.485 		5.058 		0
v -54.337 		-20.533 		3
v -54.834 		-19.144 		3
v -32.937 		-24.871 		0
v -36.963 		-19.198 		0
v -36.794 		-17.659 		0
v -40.911 		-24.026 		0
v -39.485 		-23.059 		0
v -49.417 		-24.71 		3
v -50.956 		-24.008 		3
v -40.96 		-24.0479 		0
v -37.467 		-20.611 		0
v -38.308 		-21.898 		0
v -49.349 		-17.589 		3
v -47.734 		-25.131 		0
v -47.68 		-25.1351 		0
v -53.51 		-21.826 		3
v -49.152 		-24.7763 		0
v -52.352 		-23.024 		3
v -43.028 		-18.629 		0
v -43.769 		-19.522 		0
v -44.842 		-20.136 		0
v -46.074 		-20.341 		0
v -47.336 		-20.136 		0
v -48.411 		-19.522 		0
v -49.115 		-18.647 		0
v -49.152 		-18.4797 		0
v -42.78 		-17.589 		0
v 41 		13.999 		3
v 36.5 		7.998 		3
v -48.411 		1.712 		0
v -47.347 		2.328 		0
v -46.074 		2.532 		0
v -44.828 		2.325 		0
v -43.759 		1.704 		0
v -43.024 		0.809 		0
v 33.998 		10.5 		3
v 35.542 		8.188 		3
v 36.012 		8.046 		3
v -44.121 		-25.132 		0
v -42.456 		-24.718 		0
v 36.988 		8.046 		3
v 37.458 		8.188 		3
v -42.404 		6.717 		0
v -44.0523 		7.1232 		0
v -54.834 		-19.144 		0
v -54.337 		-20.533 		0
v 36.012 		12.954 		3
v -47.685 		7.131 		0
v 35.542 		12.812 		3
v -44.084 		7.131 		0
v -50.956 		-24.008 		0
v -49.417 		-24.71 		0
v 35.11 		12.581 		3
v -49.349 		-17.589 		0
v 34.73 		12.27 		3
v -53.51 		-21.826 		0
v 34.419 		11.89 		3
v -52.352 		-23.024 		0
v 34.188 		11.458 		3
v 34.046 		10.988 		3
v 34.046 		10.012 		3
v 34.188 		9.542 		3
v 34.419 		9.11 		3
v 34.73 		8.73 		3
v 35.11 		8.419 		3
v 38.954 		10.988 		3
v 38.812 		11.458 		3
v 38.581 		11.89 		3
v 38.27 		12.27 		3
v 37.89 		12.581 		3
v 37.458 		12.812 		3
v 36.988 		12.954 		3
v 37.89 		8.419 		3
v 38.27 		8.73 		3
v 38.581 		9.11 		3
# 498 vertices

g group_0_3888547

usemtl color_3888547
s 0

f 48 	374 	15
f 364 	33 	30
f 364 	30 	29
f 41 	38 	37
f 41 	37 	42
f 15 	45 	48
f 27 	94 	49
f 45 	52 	55
f 45 	55 	48
f 34 	42 	57
f 37 	57 	42
f 62 	71 	61
f 63 	94 	62
f 60 	61 	71
f 59 	60 	71
f 67 	64 	38
f 67 	38 	41
f 16 	73 	74
f 16 	74 	17
f 90 	99 	65
f 66 	93 	65
f 78 	83 	85
f 78 	85 	79
f 68 	118 	66
f 87 	117 	68
f 99 	100 	76
f 83 	78 	86
f 90 	65 	93
f 63 	49 	94
f 85 	73 	16
f 85 	16 	79
f 71 	72 	59
f 58 	59 	72
f 100 	58 	72
f 71 	62 	94
f 72 	76 	100
f 76 	65 	99
f 104 	103 	108
f 103 	111 	114
f 103 	114 	108
f 117 	87 	116
f 118 	68 	117
f 119 	66 	118
f 93 	66 	119
f 115 	116 	87
f 107 	122 	87
f 122 	107 	121
f 115 	87 	122
f 111 	120 	125
f 111 	125 	114
f 129 	128 	132
f 129 	132 	133
f 120 	126 	134
f 120 	134 	125
f 181 	132 	128
f 126 	137 	140
f 126 	140 	134
f 181 	127 	145
f 150 	151 	144
f 150 	144 	143
f 34 	152 	121
f 153 	121 	152
f 147 	146 	156
f 148 	147 	156
f 148 	156 	157
f 149 	148 	157
f 149 	157 	158
f 143 	149 	158
f 143 	158 	150
f 127 	161 	163
f 127 	163 	145
f 162 	174 	165
f 162 	165 	160
f 173 	56 	170
f 194 	163 	161
f 168 	179 	180
f 168 	180 	169
f 128 	178 	181
f 184 	182 	187
f 305 	187 	182
f 185 	188 	198
f 127 	181 	178
f 190 	179 	168
f 187 	179 	190
f 187 	190 	184
f 198 	192 	185
f 196 	201 	297
f 170 	213 	173
f 193 	203 	204
f 193 	204 	194
f 180 	205 	199
f 180 	199 	169
f 205 	210 	207
f 205 	207 	199
f 209 	192 	198
f 209 	198 	211
f 193 	209 	211
f 193 	211 	203
f 210 	216 	213
f 210 	213 	207
f 215 	219 	201
f 215 	201 	196
f 204 	163 	194
f 223 	222 	232
f 223 	232 	234
f 220 	235 	236
f 220 	236 	221
f 230 	229 	238
f 230 	238 	239
f 238 	229 	228
f 238 	228 	242
f 242 	228 	227
f 242 	227 	244
f 52 	245 	246
f 52 	246 	55
f 245 	64 	67
f 245 	67 	246
f 249 	165 	251
f 174 	251 	165
f 33 	107 	436
f 33 	436 	252
f 259 	162 	257
f 160 	257 	162
f 255 	254 	27
f 33 	252 	30
f 57 	152 	34
f 410 	27 	254
f 260 	104 	264
f 108 	264 	104
f 264 	266 	265
f 264 	265 	260
f 63 	261 	49
f 49 	261 	268
f 83 	86 	269
f 267 	269 	86
f 266 	269 	267
f 266 	267 	265
f 56 	270 	170
f 244 	227 	225
f 244 	225 	279
f 172 	274 	281
f 171 	172 	281
f 272 	249 	275
f 251 	275 	249
f 274 	172 	280
f 220 	272 	275
f 220 	275 	235
f 291 	283 	172
f 283 	280 	172
f 292 	293 	290
f 292 	290 	289
f 262 	171 	281
f 273 	263 	281
f 262 	281 	263
f 289 	221 	292
f 236 	292 	221
f 318 	286 	284
f 279 	225 	223
f 279 	223 	234
f 296 	282 	295
f 285 	295 	282
f 293 	219 	290
f 215 	290 	219
f 146 	230 	239
f 146 	239 	156
f 201 	298 	297
f 213 	216 	173
f 151 	232 	222
f 151 	222 	144
f 182 	294 	305
f 306 	140 	302
f 137 	302 	140
f 298 	259 	297
f 257 	297 	259
f 304 	370 	301
f 299 	301 	370
f 303 	371 	304
f 302 	270 	306
f 294 	17 	74
f 294 	74 	305
f 310 	308 	307
f 310 	307 	311
f 333 	296 	319
f 313 	454 	28
f 315 	317 	323
f 307 	312 	316
f 307 	316 	311
f 324 	321 	320
f 319 	318 	333
f 310 	49 	268
f 310 	268 	308
f 287 	319 	309
f 287 	309 	288
f 329 	331 	316
f 329 	316 	312
f 329 	321 	324
f 329 	324 	331
f 284 	333 	318
f 322 	315 	323
f 332 	314 	322
f 334 	314 	332
f 326 	453 	334
f 325 	453 	326
f 28 	453 	325
f 314 	315 	322
f 317 	346 	323
f 309 	319 	296
f 343 	344 	337
f 343 	337 	336
f 343 	336 	335
f 343 	335 	347
f 338 	337 	344
f 338 	344 	352
f 339 	338 	352
f 339 	352 	353
f 340 	339 	353
f 340 	353 	354
f 347 	335 	255
f 347 	255 	27
f 330 	323 	346
f 355 	330 	346
f 346 	477 	355
f 341 	396 	345
f 345 	395 	350
f 350 	394 	351
f 328 	396 	341
f 327 	396 	328
f 351 	394 	303
f 295 	309 	296
f 320 	356 	358
f 320 	358 	324
f 356 	360 	358
f 342 	340 	354
f 342 	354 	364
f 363 	357 	349
f 357 	428 	450
f 306 	270 	56
f 374 	366 	13
f 13 	15 	374
f 276 	63 	62
f 276 	62 	277
f 360 	375 	376
f 360 	376 	358
f 369 	359 	370
f 375 	377 	380
f 375 	380 	376
f 368 	362 	369
f 361 	359 	369
f 378 	59 	58
f 378 	58 	379
f 377 	366 	374
f 377 	374 	380
f 58 	381 	379
f 29 	342 	364
f 63 	276 	261
f 367 	365 	373
f 372 	367 	373
f 368 	373 	365
f 365 	362 	368
f 361 	369 	362
f 300 	370 	359
f 62 	61 	382
f 62 	382 	277
f 61 	60 	386
f 61 	386 	382
f 60 	59 	378
f 60 	378 	386
f 401 	393 	426
f 99 	90 	164
f 90 	391 	164
f 93 	392 	391
f 93 	391 	90
f 401 	399 	390
f 93 	400 	392
f 395 	345 	396
f 406 	405 	66
f 406 	66 	65
f 398 	397 	385
f 388 	385 	397
f 385 	384 	398
f 384 	389 	398
f 399 	398 	389
f 390 	399 	389
f 66 	405 	404
f 66 	404 	68
f 409 	408 	72
f 409 	72 	71
f 388 	397 	387
f 397 	396 	387
f 327 	387 	396
f 394 	350 	395
f 370 	304 	371
f 371 	303 	394
f 300 	299 	370
f 72 	408 	407
f 72 	407 	76
f 76 	407 	406
f 76 	406 	65
f 390 	393 	401
f 383 	426 	393
f 372 	401 	414
f 87 	68 	404
f 87 	404 	403
f 87 	403 	402
f 367 	372 	414
f 410 	94 	27
f 94 	410 	409
f 94 	409 	71
f 421 	100 	99
f 421 	99 	422
f 99 	164 	422
f 348 	416 	349
f 418 	417 	458
f 417 	416 	458
f 348 	458 	416
f 363 	349 	416
f 421 	381 	100
f 58 	100 	381
f 122 	425 	424
f 122 	424 	115
f 414 	401 	426
f 121 	153 	425
f 121 	425 	122
f 431 	119 	118
f 431 	118 	432
f 431 	400 	119
f 93 	119 	400
f 435 	442 	434
f 430 	442 	435
f 429 	443 	430
f 433 	443 	429
f 428 	427 	450
f 434 	442 	427
f 402 	436 	107
f 402 	107 	87
f 424 	439 	116
f 424 	116 	115
f 118 	117 	441
f 118 	441 	432
f 439 	441 	117
f 439 	117 	116
f 159 	438 	445
f 444 	462 	445
f 433 	463 	443
f 437 	440 	446
f 438 	437 	446
f 446 	445 	438
f 440 	475 	446
f 475 	474 	446
f 447 	446 	474
f 349 	357 	450
f 454 	313 	455
f 453 	28 	454
f 271 	473 	455
f 462 	444 	463
f 159 	445 	462
f 444 	443 	463
f 442 	430 	443
f 450 	427 	442
f 457 	456 	466
f 467 	466 	456
f 455 	473 	456
f 466 	420 	457
f 420 	419 	457
f 419 	423 	457
f 458 	457 	423
f 423 	418 	458
f 467 	456 	473
f 271 	455 	471
f 314 	334 	453
f 471 	455 	313
f 411 	355 	477
f 449 	448 	468
f 481 	479 	448
f 474 	481 	447
f 448 	447 	481
f 479 	469 	448
f 469 	468 	448
f 477 	449 	468
f 411 	477 	468
f 129 	133 	188
f 129 	188 	185
f 133 	132 	181
f 198 	188 	181
f 133 	181 	188
f 198 	181 	211
f 145 	211 	181
f 203 	211 	204
f 163 	204 	211
f 163 	211 	145
f 162 	259 	251
f 162 	251 	174
f 264 	156 	266
f 266 	156 	269
f 251 	259 	275
f 293 	292 	298
f 275 	259 	292
f 235 	275 	292
f 235 	292 	236
f 298 	201 	293
f 219 	293 	201
f 298 	292 	259
f 73 	242 	74
f 151 	150 	140
f 157 	156 	108
f 264 	108 	156
f 83 	269 	239
f 140 	306 	151
f 158 	134 	150
f 108 	114 	157
f 158 	157 	125
f 125 	157 	114
f 134 	158 	125
f 140 	150 	134
f 210 	234 	232
f 179 	187 	244
f 279 	179 	244
f 242 	244 	187
f 210 	205 	234
f 279 	234 	205
f 205 	180 	279
f 179 	279 	180
f 239 	269 	156
f 85 	83 	239
f 85 	239 	238
f 242 	73 	238
f 187 	305 	242
f 305 	74 	242
f 85 	238 	73
f 210 	232 	216
f 306 	56 	232
f 151 	306 	232
f 216 	232 	56
f 173 	216 	56
f 324 	343 	331
f 331 	347 	316
f 311 	347 	310
f 316 	347 	311
f 344 	376 	352
f 380 	374 	352
f 347 	331 	343
f 344 	343 	358
f 27 	310 	347
f 49 	310 	27
f 358 	343 	324
f 354 	353 	55
f 48 	55 	353
f 374 	48 	353
f 353 	352 	374
f 358 	376 	344
f 380 	352 	376
f 67 	364 	246
f 55 	246 	354
f 41 	42 	364
f 33 	364 	42
f 34 	33 	42
f 67 	41 	364
f 354 	246 	364
f 121 	107 	34
f 33 	34 	107
# 460 faces

g group_0_16768282

usemtl color_16768282
s 0

f 4 	5 	6
f 3 	5 	4
f 330 	355 	14
f 7 	9 	11
f 7 	11 	12
f 17 	297 	16
f 332 	322 	131
f 21 	91 	20
f 18 	19 	154
f 21 	20 	24
f 21 	24 	23
f 25 	5 	23
f 23 	24 	26
f 23 	26 	25
f 25 	26 	31
f 25 	31 	32
f 32 	31 	35
f 32 	35 	36
f 39 	40 	36
f 39 	36 	35
f 43 	44 	40
f 43 	40 	39
f 15 	4 	45
f 46 	47 	44
f 46 	44 	43
f 50 	51 	47
f 50 	47 	46
f 52 	4 	245
f 53 	54 	51
f 53 	51 	50
f 53 	8 	54
f 4 	98 	245
f 64 	245 	135
f 9 	7 	124
f 123 	124 	7
f 70 	69 	75
f 70 	75 	77
f 297 	257 	79
f 86 	78 	257
f 77 	75 	80
f 77 	80 	81
f 82 	84 	81
f 82 	81 	80
f 88 	89 	84
f 88 	84 	82
f 91 	92 	89
f 91 	89 	88
f 16 	297 	79
f 91 	21 	92
f 95 	96 	97
f 95 	97 	98
f 101 	102 	96
f 101 	96 	95
f 104 	257 	103
f 105 	106 	102
f 105 	102 	101
f 109 	110 	106
f 109 	106 	105
f 111 	257 	120
f 112 	113 	110
f 112 	110 	109
f 113 	112 	70
f 69 	70 	112
f 130 	131 	124
f 130 	124 	123
f 135 	136 	131
f 135 	131 	130
f 138 	139 	136
f 138 	136 	135
f 141 	142 	139
f 141 	139 	138
f 98 	97 	142
f 98 	142 	141
f 147 	148 	146
f 144 	229 	143
f 149 	146 	148
f 143 	146 	149
f 32 	5 	25
f 2 	155 	1
f 154 	1 	155
f 51 	2 	47
f 54 	2 	51
f 437 	438 	2
f 159 	462 	2
f 426 	383 	2
f 155 	2 	333
f 284 	283 	155
f 155 	171 	262
f 482 	480 	128
f 480 	478 	128
f 185 	192 	154
f 422 	1 	270
f 164 	391 	1
f 154 	297 	1
f 194 	165 	220
f 220 	221 	194
f 167 	175 	262
f 182 	184 	297
f 169 	199 	297
f 170 	297 	199
f 270 	1 	170
f 155 	262 	175
f 194 	161 	165
f 160 	165 	161
f 247 	155 	177
f 178 	128 	127
f 168 	169 	297
f 193 	154 	192
f 194 	154 	193
f 196 	154 	194
f 297 	154 	196
f 207 	170 	199
f 195 	274 	191
f 200 	273 	197
f 206 	263 	202
f 213 	170 	207
f 192 	209 	193
f 212 	214 	263
f 208 	212 	263
f 214 	217 	263
f 262 	263 	217
f 196 	194 	215
f 218 	262 	217
f 166 	167 	262
f 215 	194 	221
f 144 	222 	223
f 144 	223 	225
f 144 	225 	227
f 144 	227 	228
f 144 	228 	229
f 230 	143 	229
f 146 	143 	230
f 240 	258 	237
f 241 	258 	240
f 233 	237 	258
f 183 	186 	258
f 243 	183 	258
f 250 	155 	248
f 253 	155 	250
f 247 	248 	155
f 410 	254 	436
f 252 	436 	254
f 254 	255 	252
f 30 	252 	255
f 160 	161 	472
f 256 	155 	253
f 224 	258 	256
f 3 	258 	186
f 189 	3 	186
f 191 	280 	189
f 197 	273 	195
f 111 	103 	257
f 155 	256 	258
f 258 	224 	226
f 258 	226 	231
f 233 	258 	231
f 241 	243 	258
f 176 	155 	175
f 176 	177 	155
f 218 	166 	262
f 260 	265 	257
f 104 	260 	257
f 202 	273 	200
f 206 	208 	263
f 263 	273 	202
f 274 	280 	191
f 274 	195 	273
f 261 	276 	270
f 268 	261 	302
f 265 	267 	257
f 86 	257 	267
f 3 	365 	367
f 420 	466 	414
f 467 	3 	466
f 414 	466 	3
f 3 	473 	271
f 3 	271 	471
f 471 	313 	3
f 28 	325 	3
f 325 	326 	3
f 296 	189 	282
f 282 	189 	280
f 249 	272 	220
f 249 	220 	165
f 472 	470 	4
f 278 	451 	470
f 4 	470 	451
f 3 	189 	296
f 284 	286 	283
f 280 	283 	285
f 283 	288 	285
f 283 	286 	287
f 283 	287 	288
f 285 	282 	280
f 215 	221 	290
f 289 	290 	221
f 273 	281 	274
f 309 	295 	288
f 190 	168 	297
f 287 	286 	318
f 291 	155 	283
f 171 	155 	291
f 172 	171 	291
f 294 	182 	297
f 184 	190 	297
f 365 	3 	296
f 170 	1 	297
f 299 	300 	296
f 300 	359 	296
f 299 	296 	301
f 333 	350 	296
f 301 	296 	304
f 78 	79 	257
f 294 	297 	17
f 307 	308 	302
f 308 	268 	302
f 285 	288 	295
f 312 	302 	329
f 307 	302 	312
f 318 	319 	287
f 320 	321 	302
f 8 	10 	2
f 270 	302 	261
f 124 	131 	322
f 327 	328 	333
f 328 	341 	333
f 14 	11 	330
f 321 	329 	302
f 284 	155 	333
f 322 	323 	124
f 9 	124 	323
f 341 	345 	333
f 255 	335 	336
f 255 	336 	337
f 255 	337 	338
f 255 	338 	339
f 255 	339 	340
f 255 	340 	342
f 255 	342 	29
f 255 	29 	30
f 350 	333 	345
f 315 	348 	317
f 349 	346 	348
f 317 	348 	346
f 351 	296 	350
f 304 	296 	303
f 303 	296 	351
f 320 	302 	356
f 361 	362 	296
f 359 	361 	296
f 302 	4 	356
f 365 	296 	362
f 363 	416 	414
f 371 	401 	370
f 369 	370 	401
f 368 	369 	401
f 368 	401 	373
f 276 	277 	270
f 277 	382 	270
f 382 	386 	270
f 270 	378 	379
f 270 	379 	381
f 366 	4 	13
f 8 	2 	54
f 44 	47 	2
f 385 	333 	384
f 333 	383 	389
f 385 	388 	333
f 77 	3 	70
f 386 	378 	270
f 5 	3 	81
f 327 	333 	387
f 387 	333 	388
f 384 	333 	389
f 92 	5 	89
f 84 	89 	5
f 5 	92 	21
f 5 	21 	23
f 389 	383 	390
f 400 	1 	392
f 391 	392 	1
f 393 	390 	383
f 396 	397 	395
f 397 	398 	395
f 398 	399 	395
f 394 	395 	399
f 399 	401 	394
f 371 	394 	401
f 372 	373 	401
f 70 	3 	113
f 334 	332 	136
f 136 	139 	334
f 131 	136 	332
f 139 	142 	334
f 142 	97 	326
f 402 	403 	404
f 402 	404 	405
f 402 	405 	406
f 402 	406 	407
f 402 	407 	408
f 402 	408 	409
f 402 	409 	410
f 3 	326 	97
f 77 	81 	3
f 5 	81 	84
f 326 	334 	142
f 3 	97 	96
f 3 	96 	102
f 3 	102 	106
f 3 	106 	110
f 110 	113 	3
f 11 	9 	323
f 323 	330 	11
f 10 	14 	355
f 355 	411 	10
f 2 	10 	411
f 5 	32 	36
f 5 	36 	40
f 44 	2 	40
f 5 	40 	2
f 414 	3 	367
f 412 	53 	1
f 413 	412 	1
f 417 	414 	416
f 417 	418 	414
f 357 	363 	414
f 418 	423 	414
f 414 	419 	420
f 91 	6 	20
f 270 	381 	421
f 270 	421 	422
f 164 	1 	422
f 423 	419 	414
f 24 	6 	26
f 31 	26 	6
f 424 	1 	439
f 383 	333 	2
f 46 	43 	1
f 435 	434 	426
f 434 	427 	426
f 414 	426 	428
f 425 	153 	1
f 50 	46 	1
f 53 	50 	1
f 430 	426 	429
f 435 	426 	430
f 432 	1 	431
f 400 	431 	1
f 433 	429 	426
f 4 	75 	69
f 428 	357 	414
f 80 	75 	4
f 427 	428 	426
f 82 	6 	88
f 402 	410 	436
f 6 	24 	20
f 91 	88 	6
f 159 	2 	438
f 432 	441 	1
f 444 	445 	450
f 349 	450 	445
f 446 	349 	445
f 447 	349 	446
f 448 	349 	447
f 449 	349 	448
f 443 	444 	450
f 442 	443 	450
f 69 	112 	4
f 109 	4 	112
f 439 	1 	441
f 7 	37 	123
f 491 	451 	492
f 22 	18 	451
f 154 	451 	18
f 37 	38 	123
f 461 	185 	452
f 130 	123 	38
f 38 	64 	130
f 135 	245 	138
f 314 	453 	315
f 315 	453 	454
f 315 	454 	455
f 315 	455 	456
f 315 	456 	457
f 315 	457 	458
f 315 	458 	348
f 129 	483 	128
f 154 	452 	185
f 486 	485 	129
f 485 	484 	129
f 484 	459 	129
f 459 	483 	129
f 482 	128 	483
f 461 	167 	166
f 461 	166 	460
f 175 	167 	461
f 175 	461 	452
f 463 	426 	462
f 426 	2 	462
f 464 	176 	175
f 464 	175 	452
f 465 	177 	176
f 465 	176 	464
f 433 	426 	463
f 177 	465 	247
f 496 	247 	465
f 473 	3 	467
f 183 	495 	278
f 468 	469 	2
f 470 	186 	183
f 470 	183 	278
f 411 	468 	2
f 472 	189 	186
f 472 	186 	470
f 440 	2 	475
f 474 	475 	2
f 437 	2 	440
f 476 	191 	189
f 476 	189 	472
f 346 	349 	477
f 449 	477 	349
f 478 	195 	191
f 478 	191 	476
f 469 	479 	2
f 480 	197 	195
f 480 	195 	478
f 28 	3 	313
f 474 	2 	481
f 479 	481 	2
f 482 	200 	197
f 482 	197 	480
f 138 	245 	141
f 483 	202 	200
f 483 	200 	482
f 6 	82 	80
f 80 	4 	6
f 459 	206 	202
f 459 	202 	483
f 484 	208 	206
f 484 	206 	459
f 451 	258 	4
f 3 	4 	258
f 4 	109 	105
f 4 	105 	101
f 4 	101 	95
f 4 	95 	98
f 141 	245 	98
f 485 	212 	208
f 485 	208 	484
f 451 	154 	258
f 258 	154 	155
f 486 	214 	212
f 486 	212 	485
f 12 	415 	57
f 415 	413 	152
f 153 	152 	413
f 1 	153 	413
f 57 	37 	12
f 424 	425 	1
f 152 	57 	415
f 7 	12 	37
f 135 	130 	64
f 487 	217 	214
f 487 	214 	486
f 460 	185 	461
f 43 	39 	1
f 6 	1 	39
f 6 	39 	35
f 35 	31 	6
f 6 	5 	2
f 6 	2 	1
f 154 	464 	452
f 488 	218 	217
f 488 	217 	487
f 412 	8 	53
f 460 	166 	218
f 460 	218 	488
f 464 	154 	465
f 496 	465 	154
f 413 	10 	8
f 413 	8 	412
f 278 	495 	451
f 14 	10 	413
f 14 	413 	415
f 489 	226 	224
f 489 	224 	22
f 12 	11 	14
f 12 	14 	415
f 490 	231 	226
f 490 	226 	489
f 491 	233 	231
f 491 	231 	490
f 4 	257 	472
f 492 	237 	233
f 492 	233 	491
f 257 	160 	472
f 493 	240 	237
f 493 	237 	492
f 494 	241 	240
f 494 	240 	493
f 495 	243 	241
f 495 	241 	494
f 161 	127 	476
f 478 	476 	127
f 127 	128 	478
f 495 	183 	243
f 497 	248 	247
f 497 	247 	496
f 498 	250 	248
f 498 	248 	497
f 19 	253 	250
f 19 	250 	498
f 486 	129 	487
f 18 	256 	253
f 18 	253 	19
f 129 	185 	487
f 488 	185 	460
f 488 	487 	185
f 22 	224 	256
f 22 	256 	18
f 490 	489 	451
f 489 	22 	451
f 491 	490 	451
f 52 	45 	4
f 15 	13 	4
f 4 	366 	377
f 4 	377 	375
f 375 	360 	4
f 360 	356 	4
f 4 	302 	137
f 126 	4 	137
f 126 	120 	257
f 257 	4 	126
f 476 	472 	161
f 494 	493 	451
f 492 	451 	493
f 495 	494 	451
f 496 	154 	497
f 498 	497 	154
f 19 	498 	154
# 540 faces

 #end of obj_0

